<?xml version="1.0" encoding="UTF-8" standalone="no"?>
<!-- Created with Inkscape (http://www.inkscape.org/) -->

<svg
   xmlns:dc="http://purl.org/dc/elements/1.1/"
   xmlns:cc="http://creativecommons.org/ns#"
   xmlns:rdf="http://www.w3.org/1999/02/22-rdf-syntax-ns#"
   xmlns:svg="http://www.w3.org/2000/svg"
   xmlns="http://www.w3.org/2000/svg"
   xmlns:sodipodi="http://sodipodi.sourceforge.net/DTD/sodipodi-0.dtd"
   xmlns:inkscape="http://www.inkscape.org/namespaces/inkscape"
   width="100"
   height="160.00003"
   id="svg2"
   version="1.1"
   inkscape:version="0.47pre4 r22446"
   sodipodi:docname="plain-black.svg"
   sodipodi:version="0.32"
   inkscape:output_extension="org.inkscape.output.svg.inkscape">
  <defs
     id="defs4">
    <inkscape:perspective
       sodipodi:type="inkscape:persp3d"
       inkscape:vp_x="0 : 526.18109 : 1"
       inkscape:vp_y="0 : 1000 : 0"
       inkscape:vp_z="744.09448 : 526.18109 : 1"
       inkscape:persp3d-origin="372.04724 : 350.78739 : 1"
       id="perspective10" />
    <inkscape:perspective
       id="perspective3623"
       inkscape:persp3d-origin="0.5 : 0.33333333 : 1"
       inkscape:vp_z="1 : 0.5 : 1"
       inkscape:vp_y="0 : 1000 : 0"
       inkscape:vp_x="0 : 0.5 : 1"
       sodipodi:type="inkscape:persp3d" />
  </defs>
  <sodipodi:namedview
     id="base"
     pagecolor="#ffffff"
     bordercolor="#666666"
     borderopacity="1.0"
     inkscape:pageopacity="0.0"
     inkscape:pageshadow="2"
     inkscape:zoom="2.2687496"
     inkscape:cx="94.533623"
     inkscape:cy="57.959954"
     inkscape:document-units="px"
     inkscape:current-layer="layer1"
     showgrid="true"
     gridtolerance="10"
     showguides="true"
     inkscape:guide-bbox="true"
     showborder="false"
     inkscape:window-width="1464"
     inkscape:window-height="927"
     inkscape:window-x="208"
     inkscape:window-y="46"
     inkscape:window-maximized="0">
    <inkscape:grid
       type="xygrid"
       id="grid2816"
       empspacing="10"
       visible="true"
       enabled="false"
       snapvisiblegridlinesonly="true" />
  </sodipodi:namedview>
  <metadata
     id="metadata7">
    <rdf:RDF>
      <cc:Work
         rdf:about="">
        <dc:format>image/svg+xml</dc:format>
        <dc:type
           rdf:resource="http://purl.org/dc/dcmitype/StillImage" />
        <dc:title />
      </cc:Work>
    </rdf:RDF>
  </metadata>
  <g
     inkscape:label="Layer 1"
     inkscape:groupmode="layer"
     id="layer1"
     transform="translate(0,-892.36216)">
    <g
       id="g3609">
      <path
         id="path3730"
         d="M 7.03125,892.36216 C 3.1443893,892.36216 0,895.68493 0,899.83091 l 0,1 20,11.53125 56.8125,0 19.25,-19.21875 c -0.935139,-0.4866 -1.980282,-0.78125 -3.09375,-0.78125 l -85.9375,0 0,0 z"
         style="opacity:0.5;fill:#c8c8c8;fill-opacity:1;stroke:none" />
      <path
         id="path3728"
         d="m 99.03125,896.04966 -19.03125,19 0,44.25 10.125,10.125 9.875,-9.875 0,-59.71875 c 0,-1.38713 -0.354746,-2.67203 -0.96875,-3.78125 z"
         style="opacity:0.5;fill:#c8c8c8;fill-opacity:1;stroke:none" />
      <path
         id="path3726"
         d="M 0,905.61216 0,959.51841 10.03125,969.54966 20,959.58091 20,917.14341 0,905.61216 z"
         style="opacity:0.5;fill:#c8c8c8;fill-opacity:1;stroke:none" />
      <path
         id="path3724"
         d="m 23.09375,962.36216 -10.125,10.09375 9.90625,9.90625 54.28125,0 10.03125,-10.03125 -10,-9.96875 -54.09375,0 0,0 z"
         style="opacity:0.5;fill:#c8c8c8;fill-opacity:1;stroke:none" />
      <path
         id="path3718"
         d="m 90.125,975.26841 -10.125,10.125 0,43.96879 19.125,19.125 c 0.552893,-1.0674 0.875,-2.2827 0.875,-3.5938 l 0,-59.75 -9.875,-9.875 0,10e-6 z"
         style="opacity:0.5;fill:#c8c8c8;fill-opacity:1;stroke:none" />
      <path
         id="path3716"
         d="M 10.03125,975.39341 0,985.42466 l 0,53.68754 20,-11.5625 0,-42.18754 -9.96875,-9.96875 0,0 z"
         style="opacity:0.5;fill:#c8c8c8;fill-opacity:1;stroke:none" />
      <path
         id="rect2818"
         d="m 20,1032.3622 -20,11.5312 0,1 c 0,4.146 3.1443893,7.4688 7.03125,7.4688 l 85.9375,0 c 1.18935,0 2.299753,-0.3244 3.28125,-0.875 l -19.125,-19.125 -57.125,0 0,0 z"
         style="opacity:0.5;fill:#c8c8c8;fill-opacity:1;stroke:none" />
    </g>
    <g
       id="g2978"
       transform="translate(0,-1.4741211e-5)">
      <path
         inkscape:label="#path3746"
         style="fill:#000000;fill-opacity:0.8627451;stroke:none"
         d="M 7.03125,892.36218 C 3.14439,892.36218 0,895.68495 0,899.83093 l 0,1 20,11.53125 56.8125,0 19.25,-19.21875 c -0.93514,-0.4866 -1.98028,-0.78125 -3.09375,-0.78125 l -85.9375,0 0,0 z"
         id="tc" />
      <path
         inkscape:label="#path3748"
         style="fill:#000000;fill-opacity:0.8627451;stroke:none"
         d="m 99.03125,896.04968 -19.03125,19 0,44.25 10.125,10.125 9.875,-9.875 0,-59.71875 c 0,-1.38713 -0.35475,-2.67203 -0.96875,-3.78125 z"
         id="tr" />
      <path
         inkscape:label="#path3750"
         style="fill:#000000;fill-opacity:0.8627451;stroke:none"
         d="M 0,905.61218 0,959.51843 10.03125,969.54968 20,959.58093 20,917.14343 0,905.61218 z"
         id="tl" />
      <path
         inkscape:label="#path3752"
         style="fill:#000000;fill-opacity:0.8627451;stroke:none"
         d="m 23.09375,962.36218 -10.125,10.09375 9.90625,9.90625 54.28125,0 10.03125,-10.03125 -10,-9.96875 -54.09375,0 0,0 z"
         id="cc" />
      <path
         inkscape:label="#path3754"
         style="fill:#000000;fill-opacity:0.8627451;stroke:none"
         d="m 90.125,975.26843 -10.125,10.125 0,43.96877 19.125,19.125 c 0.55289,-1.0674 0.875,-2.2827 0.875,-3.5938 l 0,-59.74997 -9.875,-9.875 0,0 z"
         id="br" />
      <path
         inkscape:label="#path3756"
         style="fill:#000000;fill-opacity:0.8627451;stroke:none"
         d="M 10.03125,975.39343 0,985.42468 l 0,53.68752 20,-11.5625 0,-42.18752 -9.96875,-9.96875 0,0 z"
         id="bl" />
      <path
         inkscape:label="#path3758"
         style="fill:#000000;fill-opacity:0.8627451;stroke:none"
         d="m 20,1032.3622 -20,11.5312 0,1 c 0,4.146 3.14439,7.4688 7.03125,7.4688 l 85.9375,0 c 1.18935,0 2.29975,-0.3244 3.28125,-0.875 l -19.125,-19.125 -57.125,0 0,0 z"
         id="bc" />
    </g>
  </g>
</svg>
