<?xml version="1.0" encoding="UTF-8" standalone="no"?>
<!-- Created with Inkscape (http://www.inkscape.org/) -->

<svg
   xmlns:dc="http://purl.org/dc/elements/1.1/"
   xmlns:cc="http://creativecommons.org/ns#"
   xmlns:rdf="http://www.w3.org/1999/02/22-rdf-syntax-ns#"
   xmlns:svg="http://www.w3.org/2000/svg"
   xmlns="http://www.w3.org/2000/svg"
   xmlns:sodipodi="http://sodipodi.sourceforge.net/DTD/sodipodi-0.dtd"
   xmlns:inkscape="http://www.inkscape.org/namespaces/inkscape"
   width="100"
   height="160.00003"
   id="svg2"
   version="1.1"
   inkscape:version="0.48.1 "
   sodipodi:docname="plain-black.svg"
   sodipodi:version="0.32"
   inkscape:output_extension="org.inkscape.output.svg.inkscape">
  <defs
     id="defs4">
    <inkscape:perspective
       sodipodi:type="inkscape:persp3d"
       inkscape:vp_x="0 : 526.18109 : 1"
       inkscape:vp_y="0 : 1000 : 0"
       inkscape:vp_z="744.09448 : 526.18109 : 1"
       inkscape:persp3d-origin="372.04724 : 350.78739 : 1"
       id="perspective10" />
    <inkscape:perspective
       id="perspective3623"
       inkscape:persp3d-origin="0.5 : 0.33333333 : 1"
       inkscape:vp_z="1 : 0.5 : 1"
       inkscape:vp_y="0 : 1000 : 0"
       inkscape:vp_x="0 : 0.5 : 1"
       sodipodi:type="inkscape:persp3d" />
  </defs>
  <sodipodi:namedview
     id="base"
     pagecolor="#ffffff"
     bordercolor="#666666"
     borderopacity="1.0"
     inkscape:pageopacity="0.0"
     inkscape:pageshadow="2"
     inkscape:zoom="8"
     inkscape:cx="73.939604"
     inkscape:cy="32.881494"
     inkscape:document-units="px"
     inkscape:current-layer="layer1"
     showgrid="true"
     gridtolerance="10"
     showguides="true"
     inkscape:guide-bbox="true"
     showborder="false"
     inkscape:window-width="1680"
     inkscape:window-height="994"
     inkscape:window-x="1676"
     inkscape:window-y="-4"
     inkscape:window-maximized="1">
    <inkscape:grid
       type="xygrid"
       id="grid2816"
       empspacing="10"
       visible="true"
       enabled="false"
       snapvisiblegridlinesonly="true" />
  </sodipodi:namedview>
  <metadata
     id="metadata7">
    <rdf:RDF>
      <cc:Work
         rdf:about="">
        <dc:format>image/svg+xml</dc:format>
        <dc:type
           rdf:resource="http://purl.org/dc/dcmitype/StillImage" />
        <dc:title></dc:title>
      </cc:Work>
    </rdf:RDF>
  </metadata>
  <g
     inkscape:label="Layer 1"
     inkscape:groupmode="layer"
     id="layer1"
     transform="translate(0,-892.36216)">
    <g
       id="g3609">
      <path
         id="path3730"
         d="M 7.03125,892.36216 C 3.1443893,892.36216 0,895.68493 0,899.83091 l 0,1 20,11.53125 56.8125,0 19.25,-19.21875 c -0.935139,-0.4866 -1.980282,-0.78125 -3.09375,-0.78125 l -85.9375,0 0,0 z"
         style="opacity:0.5;fill:#c8c8c8;fill-opacity:1;stroke:none" />
      <path
         id="path3728"
         d="m 99.03125,896.04966 -19.03125,19 0,44.25 10.125,10.125 9.875,-9.875 0,-59.71875 c 0,-1.38713 -0.354746,-2.67203 -0.96875,-3.78125 z"
         style="opacity:0.5;fill:#c8c8c8;fill-opacity:1;stroke:none" />
      <path
         id="path3726"
         d="M 0,905.61216 0,959.51841 10.03125,969.54966 20,959.58091 20,917.14341 0,905.61216 z"
         style="opacity:0.5;fill:#c8c8c8;fill-opacity:1;stroke:none" />
      <path
         id="path3724"
         d="m 23.09375,962.36216 -10.125,10.09375 9.90625,9.90625 54.28125,0 10.03125,-10.03125 -10,-9.96875 -54.09375,0 0,0 z"
         style="opacity:0.5;fill:#c8c8c8;fill-opacity:1;stroke:none" />
      <path
         id="path3718"
         d="m 90.125,975.26841 -10.125,10.125 0,43.96879 19.125,19.125 c 0.552893,-1.0674 0.875,-2.2827 0.875,-3.5938 l 0,-59.75 -9.875,-9.875 0,10e-6 z"
         style="opacity:0.5;fill:#c8c8c8;fill-opacity:1;stroke:none" />
      <path
         id="path3716"
         d="M 10.03125,975.39341 0,985.42466 l 0,53.68754 20,-11.5625 0,-42.18754 -9.96875,-9.96875 0,0 z"
         style="opacity:0.5;fill:#c8c8c8;fill-opacity:1;stroke:none" />
      <path
         id="rect2818"
         d="m 20,1032.3622 -20,11.5312 0,1 c 0,4.146 3.1443893,7.4688 7.03125,7.4688 l 85.9375,0 c 1.18935,0 2.299753,-0.3244 3.28125,-0.875 l -19.125,-19.125 -57.125,0 0,0 z"
         style="opacity:0.5;fill:#c8c8c8;fill-opacity:1;stroke:none" />
    </g>
    <g
       id="g2978"
       transform="translate(0,-1.4741211e-5)">
      <path
         inkscape:label="#path3746"
         style="fill:#000000;fill-opacity:0.8627451;stroke:none"
         d="M 7.03125,892.36218 C 3.14439,892.36218 0,895.68495 0,899.83093 l 0,1 20,11.53125 56.8125,0 19.25,-19.21875 c -0.93514,-0.4866 -1.98028,-0.78125 -3.09375,-0.78125 l -85.9375,0 0,0 z"
         id="tc" />
      <path
         inkscape:label="#path3748"
         style="fill:#000000;fill-opacity:0.8627451;stroke:none"
         d="m 99.03125,896.04968 -19.03125,19 0,44.25 10.125,10.125 9.875,-9.875 0,-59.71875 c 0,-1.38713 -0.35475,-2.67203 -0.96875,-3.78125 z"
         id="tr" />
      <path
         inkscape:label="#path3750"
         style="fill:#000000;fill-opacity:0.8627451;stroke:none"
         d="M 0,905.61218 0,959.51843 10.03125,969.54968 20,959.58093 20,917.14343 0,905.61218 z"
         id="tl" />
      <path
         inkscape:label="#path3752"
         style="fill:#000000;fill-opacity:0.8627451;stroke:none"
         d="m 23.09375,962.36218 -10.125,10.09375 9.90625,9.90625 54.28125,0 10.03125,-10.03125 -10,-9.96875 -54.09375,0 0,0 z"
         id="cc" />
      <path
         inkscape:label="#path3754"
         style="fill:#000000;fill-opacity:0.8627451;stroke:none"
         d="m 90.125,975.26843 -10.125,10.125 0,43.96877 19.125,19.125 c 0.55289,-1.0674 0.875,-2.2827 0.875,-3.5938 l 0,-59.74997 -9.875,-9.875 0,0 z"
         id="br" />
      <path
         inkscape:label="#path3756"
         style="fill:#000000;fill-opacity:0.8627451;stroke:none"
         d="M 10.03125,975.39343 0,985.42468 l 0,53.68752 20,-11.5625 0,-42.18752 -9.96875,-9.96875 0,0 z"
         id="bl" />
      <path
         inkscape:label="#path3758"
         style="fill:#000000;fill-opacity:0.8627451;stroke:none"
         d="m 20,1032.3622 -20,11.5312 0,1 c 0,4.146 3.14439,7.4688 7.03125,7.4688 l 85.9375,0 c 1.18935,0 2.29975,-0.3244 3.28125,-0.875 l -19.125,-19.125 -57.125,0 0,0 z"
         id="bc" />
    </g>
    <path
       style="fill:#ff0000"
       d="m 96.87634,153.87237 -2.248044,-2.24805 2.684853,0 2.684854,0 -0.0017,0.59668 c -0.0018,0.63968 -0.0027,0.67637 -0.02407,0.94238 -0.0742,0.92575 -0.310031,1.81786 -0.705274,2.66797 -0.04623,0.0994 -0.139142,0.28906 -0.141631,0.28906 -5.29e-4,0 -1.012582,-1.01162 -2.249006,-2.24804 z"
       id="path3057"
       inkscape:connector-curvature="0"
       transform="translate(0,892.36216)" />
    <path
       style="fill:#ff0000"
       d="m 69.047489,150.95374 0,-9.04876 4.999477,0 4.999476,0 8.606805,8.6073 c 7.000145,7.00054 8.600618,8.61168 8.573659,8.63078 -0.01823,0.0129 -0.182301,0.0959 -0.364602,0.18449 -0.574283,0.27897 -1.127974,0.46157 -1.74567,0.57571 -0.554228,0.1024 -0.02166,0.0983 -12.921271,0.0988 l -12.147874,4.4e-4 0,-9.04876 z"
       id="path3063"
       inkscape:connector-curvature="0"
       transform="translate(0,892.36216)" />
    <path
       style="fill:#ff0000"
       d="m 41.797362,149.99252 0,-10.00998 17.671453,0 17.671454,0 9.541109,9.55124 c 5.24761,5.25318 9.541065,9.56625 9.54101,9.58461 0,0.034 -0.193345,0.14037 -0.562508,0.30951 -0.41381,0.18959 -0.94344,0.35822 -1.459276,0.4646 -0.56375,0.11627 1.181701,0.10909 -26.621466,0.10956 l -25.781776,4.4e-4 0,-10.00998 z"
       id="path3065"
       inkscape:connector-curvature="0"
       transform="translate(0,892.36216)" />
    <path
       style="fill:#ff0000"
       d="m 15.058203,151.42116 0,-8.58133 2.15999,-1.24531 c 1.187995,-0.68492 2.303646,-1.32781 2.479224,-1.42865 l 0.319234,-0.18333 24.733339,0 24.733338,0 0,10.00998 0,10.00998 -27.212562,0 -27.212563,0 0,-8.58134 z"
       id="path3067"
       inkscape:connector-curvature="0"
       transform="translate(0,892.36216)" />
    <path
       style="fill:#ff0000"
       d="m 5.9396043,159.95724 c -0.7398225,-0.1237 -1.9130968,-0.58845 -2.5863054,-1.02446 -2.0340004,-1.31733 -3.25479491,-3.56146 -3.37371436,-6.20174 l -0.05630058,-1.25 4.03941024,-2.30507 c 2.2216755,-1.26779 6.7444888,-3.86935 10.0506968,-5.78125 l 6.011287,-3.47618 28.551518,0 28.551517,0 9.619774,9.62038 9.619774,9.62038 -0.565402,0.25011 c -1.533331,0.67826 1.635724,0.63556 -45.794767,0.6171 -24.065243,-0.009 -43.8956127,-0.0405 -44.0674877,-0.0693 z"
       id="path3069"
       inkscape:connector-curvature="0"
       transform="translate(0,892.36216)" />
    <path
       style="fill:#ff0000"
       d="m -0.06039573,119.96061 0,-26.855731 5.06249643,-5.061339 5.0624963,-5.061339 5.000004,4.998832 5.000003,4.998831 -0.0051,21.125586 -0.0051,21.12559 -9.317238,5.375 c -5.1244815,2.95625 -9.6503176,5.56294 -10.05741379,5.79265 l -0.74017494,0.41765 0,-26.85573 z"
       id="path3071"
       inkscape:connector-curvature="0"
       transform="translate(0,892.36216)" />
    <path
       style="fill:#ff0000"
       d="m 89.533354,146.57803 -9.59375,-9.5976 0,-22.00027 0,-22.000281 5.031822,-5.030671 c 2.767502,-2.76687 5.088081,-5.030672 5.156843,-5.030672 0.06876,0 2.332568,2.208077 5.030679,4.906836 l 4.905652,4.906836 0,30.144672 c 0,32.6096 0.0281,31.20294 -0.651859,32.67876 l -0.285637,0.61998 -9.59375,-9.59759 z"
       id="path3073"
       inkscape:connector-curvature="0"
       transform="translate(0,892.36216)" />
    <path
       style="fill:#ff0000"
       d="m 17.907772,85.074211 -4.968161,-4.969325 5.094312,-5.093175 5.094311,-5.093175 26.999435,0.0059 26.999435,0.0059 5.053154,5.002891 5.053154,5.002891 -5.052575,5.05373 -5.052575,5.05373 -27.126165,0 -27.126165,0 -4.96816,-4.969325 z"
       id="path3075"
       inkscape:connector-curvature="0"
       transform="translate(0,892.36216)" />
    <path
       style="fill:#ff0000"
       d="m 4.9702755,72.136715 -5.03067123,-5.031822 0,-26.905678 c 0,-15.720926 0.04644064,-26.905679 0.1117161,-26.905679 0.06144387,0 4.57550643,2.574141 10.03124963,5.720314 l 9.919534,5.720313 0.03161,21.247496 0.03161,21.247496 -4.968526,4.969691 c -2.732689,2.733329 -4.997175,4.96969 -5.03219,4.96969 -0.03502,0 -2.3274672,-2.26432 -5.0943365,-5.031821 z"
       id="path3077"
       inkscape:connector-curvature="0"
       transform="translate(0,892.36216)" />
    <path
       style="fill:#ff0000"
       d="m 9.8937482,14.249032 -9.98335628,-5.7679958 0.07131945,-1.25 c 0.0392257,-0.6875 0.16371813,-1.559375 0.27664986,-1.9375 C 0.9836184,2.8651851 2.7507947,1.0452475 5.1896043,0.21506463 5.8563445,-0.01189706 7.2076129,-0.01896377 49.939604,-0.01896377 l 44.0625,0 0.875,0.27997067 c 0.48125,0.15398388 0.959375,0.33552706 1.0625,0.4034293 0.149843,0.0986628 -1.745552,2.0571384 -9.437195,9.7512788 L 76.877713,20.043536 48.377409,20.030282 19.877104,20.01703 9.8937482,14.249032 z"
       id="path3079"
       inkscape:connector-curvature="0"
       transform="translate(0,892.36216)" />
    <path
       style="fill:#ff0000"
       d="m 84.970276,72.011715 -5.030672,-5.031822 0,-22.124734 0,-22.124735 9.557526,-9.556914 9.557527,-9.5569137 0.32866,0.7178903 C 100.0843,5.865645 100.05552,4.4720323 100.06024,37.10663 l 0.004,30.125593 -4.906832,4.905657 c -2.69876,2.698111 -4.963082,4.905656 -5.031828,4.905656 -0.06875,0 -2.388795,-2.26432 -5.155664,-5.031821 z"
       id="path3081"
       inkscape:connector-curvature="0"
       transform="translate(0,892.36216)" />
  </g>
</svg>
